<svg xmlns="http://www.w3.org/2000/svg" width="126.631" height="126.631" viewBox="0 0 126.631 126.631"><defs><style>.a{fill:#e6e6f0;}.b{fill:#d4cef3;}.c{fill:#8e68d8;}.d{fill:#e6e8eb;}.e{fill:#726691;}</style></defs><g transform="translate(-1298.929 -173.867)"><circle class="a" cx="63.316" cy="63.316" r="63.316" transform="translate(1298.929 173.867)"/><path class="b" d="M1368.908,252.15h-38.8v7.081a8.427,8.427,0,0,0,8.428,8.427H1376.2V249.769Z"/><path class="c" d="M1340.393,252.15V219.909a6.46,6.46,0,0,1,6.46-6.46h30.175a6.46,6.46,0,0,1,6.46,6.46v40.459a7.29,7.29,0,0,1-7.29,7.29h0a7.29,7.29,0,0,1-7.29-7.29V252.15Z"/><rect class="d" width="29.12" height="2.797" rx="0.738" transform="translate(1347.078 227.972)"/><rect class="d" width="29.12" height="2.797" rx="0.738" transform="translate(1347.078 235.871)"/><rect class="d" width="29.12" height="2.797" rx="0.738" transform="translate(1347.078 243.874)"/><rect class="e" width="34.978" height="34.978" rx="17.489" transform="translate(1365.999 195.96)"/><path class="d" d="M1388.979,212.612h-4.653v-4.654a.838.838,0,0,0-1.676,0v4.654H1378a.838.838,0,1,0,0,1.675h4.653v4.654a.838.838,0,0,0,1.676,0v-4.654h4.653a.838.838,0,1,0,0-1.675Z"/></g></svg>