<?xml version="1.0" encoding="utf-8"?>
<!-- Generator: Adobe Illustrator 25.4.0, SVG Export Plug-In . SVG Version: 6.00 Build 0)  -->
<svg version="1.1" id="Layer_1" xmlns="http://www.w3.org/2000/svg" xmlns:xlink="http://www.w3.org/1999/xlink" x="0px" y="0px"
	 viewBox="0 0 129.2 129.2" style="enable-background:new 0 0 129.2 129.2;" xml:space="preserve">
<style type="text/css">
	.st0{fill:#E6E6F0;}
	.st1{fill:#FEFDFF;}
	.st2{fill:#8E68D8;}
	.st3{fill:#726691;}
	.st4{clip-path:url(#SVGID_00000054979563046475225120000011127987375368127152_);}
	.st5{fill:#D4CEF3;}
	.st6{fill:#E6E8EB;}
</style>
<g id="Group_1787" transform="translate(-959.5 -231.369)">
	<g id="Group_1604" transform="translate(751.486 57.502)">
		<path id="Path_8673" class="st0" d="M272.6,175.2c35,0,63.3,28.3,63.3,63.3s-28.3,63.3-63.3,63.3s-63.3-28.3-63.3-63.3
			S237.7,175.2,272.6,175.2C272.6,175.2,272.6,175.2,272.6,175.2z"/>
		<g id="Group_1591">
			
				<image style="overflow:visible;opacity:0.1;enable-background:new    ;" width="334" height="334" id="Rectangle_2575" xlink:href="3BBE5A7F4CFB754F.png"  transform="matrix(0.24 0 0 0.24 235.0684 201.0704)">
			</image>
			<g id="Group_1590">
				<path id="Path_8670" class="st1" d="M291.8,206.1l-43.3,7.9c-2.9,0.5-4.8,3.3-4.3,6.2c0,0,0,0,0,0l7.9,43.3
					c0.5,2.9,3.3,4.8,6.2,4.3c0,0,0,0,0,0l43.3-7.9c2.9-0.5,4.8-3.3,4.3-6.2c0,0,0,0,0,0l-7.9-43.3
					C297.4,207.5,294.7,205.6,291.8,206.1C291.8,206.1,291.8,206.1,291.8,206.1z M274.1,215.2c0.3,1.5-0.7,3-2.3,3.3l-0.2,0
					c-1.5,0.3-3-0.7-3.3-2.3c0,0,0,0,0,0l0-0.2c-0.3-1.5,0.7-3,2.3-3.3c0,0,0,0,0,0l0.2,0c1.5-0.3,3,0.7,3.3,2.3L274.1,215.2z"/>
			</g>
		</g>
		<g id="Group_1592">
			<path id="Rectangle_2576" class="st2" d="M272.3,221.7L272.3,221.7c3.5-0.6,6.9,1.7,7.5,5.2l0,0c0.6,3.5-1.7,6.9-5.2,7.5l0,0
				c-3.5,0.6-6.9-1.7-7.5-5.2l0,0C266.5,225.7,268.8,222.4,272.3,221.7z"/>
			<path id="Rectangle_2577" class="st2" d="M274.8,235.4L274.8,235.4c6.5-1.2,12.8,3.1,14,9.7l0.3,1.7c0.5,3-1.4,5.8-4.4,6.4
				l-12.9,2.4c-3,0.5-5.8-1.4-6.4-4.4l-0.3-1.7C263.9,242.9,268.3,236.6,274.8,235.4z"/>
		</g>
		<path id="Rectangle_2578" class="st3" d="M271.6,199.8L271.6,199.8c0.9,0,1.6,0.7,1.6,1.6v13c0,0.9-0.7,1.6-1.6,1.6h0
			c-0.9,0-1.6-0.7-1.6-1.6v-13C270,200.5,270.7,199.8,271.6,199.8z"/>
		<g id="Group_1603">
			<g>
				<defs>
					<circle id="SVGID_1_" cx="272.6" cy="238.5" r="63.3"/>
				</defs>
				<clipPath id="SVGID_00000068661484430865890960000000046351027506968200_">
					<use xlink:href="#SVGID_1_"  style="overflow:visible;"/>
				</clipPath>
				<g id="Group_1602" style="clip-path:url(#SVGID_00000068661484430865890960000000046351027506968200_);">
					<g id="Group_1601">
						<g id="Group_1596">
							<g id="Group_1594">
								
									<image style="overflow:visible;opacity:0.1;enable-background:new    ;" width="174" height="174" id="Rectangle_2579" xlink:href="3BBE5A7F4CFB754D.png"  transform="matrix(0.24 0 0 0.24 309.7334 217.6554)">
								</image>
								<g id="Group_1593">
									<path id="Path_8671" class="st1" d="M343.3,220.5h-25.1c-1.7,0-3,1.4-3,3c0,0,0,0,0,0v25.1c0,1.7,1.4,3,3,3h25.1
										c1.7,0,3-1.4,3-3c0,0,0,0,0,0v-25.1C346.3,221.9,345,220.5,343.3,220.5C343.3,220.5,343.3,220.5,343.3,220.5z M332.4,223.9
										c0,0.9-0.7,1.6-1.6,1.6h-0.1c-0.9,0-1.6-0.7-1.6-1.6c0,0,0,0,0,0v-0.1c0-0.9,0.7-1.6,1.6-1.6c0,0,0,0,0,0h0.1
										c0.9,0,1.6,0.7,1.6,1.6v0V223.9z"/>
								</g>
							</g>
							<g id="Group_1595">
								<path id="Rectangle_2580" class="st5" d="M330.7,227.3L330.7,227.3c2,0,3.7,1.6,3.7,3.7l0,0c0,2-1.6,3.7-3.7,3.7l0,0
									c-2,0-3.7-1.6-3.7-3.7l0,0C327,229,328.7,227.3,330.7,227.3z"/>
								<path id="Rectangle_2581" class="st5" d="M330.7,235.3L330.7,235.3c3.8,0,6.9,3.1,6.9,6.9v1c0,1.7-1.4,3.1-3.1,3.1H327
									c-1.7,0-3.1-1.4-3.1-3.1v-1C323.8,238.4,326.9,235.3,330.7,235.3z"/>
							</g>
							<path id="Rectangle_2582" class="st6" d="M330.7,214.9L330.7,214.9c0.5,0,0.9,0.4,0.9,0.9v7.4c0,0.5-0.4,0.9-0.9,0.9l0,0
								c-0.5,0-0.9-0.4-0.9-0.9v-7.4C329.8,215.3,330.2,214.9,330.7,214.9z"/>
						</g>
						<g id="Group_1600">
							<g id="Group_1598">
								
									<image style="overflow:visible;opacity:0.1;enable-background:new    ;" width="174" height="174" id="Rectangle_2583" xlink:href="3BBE5A7F4CFB7553.png"  transform="matrix(0.24 0 0 0.24 194.7734 217.6554)">
								</image>
								<g id="Group_1597">
									<path id="Path_8672" class="st1" d="M228.2,220.5h-25.1c-1.7,0-3,1.4-3,3v25.1c0,1.7,1.4,3,3,3h25.1c1.7,0,3-1.4,3-3v-25.1
										C231.3,221.9,229.9,220.5,228.2,220.5C228.2,220.5,228.2,220.5,228.2,220.5z M217.4,223.9c0,0.9-0.7,1.6-1.6,1.6h-0.1
										c-0.9,0-1.6-0.7-1.6-1.6c0,0,0,0,0,0v-0.1c0-0.9,0.7-1.6,1.6-1.6c0,0,0,0,0,0h0.1c0.9,0,1.6,0.7,1.6,1.6L217.4,223.9z"/>
								</g>
							</g>
							<g id="Group_1599">
								<path id="Rectangle_2584" class="st5" d="M215.7,227.3L215.7,227.3c2,0,3.7,1.6,3.7,3.7l0,0c0,2-1.6,3.7-3.7,3.7l0,0
									c-2,0-3.7-1.6-3.7-3.7l0,0C212,229,213.6,227.3,215.7,227.3z"/>
								<path id="Rectangle_2585" class="st5" d="M215.7,235.3L215.7,235.3c3.8,0,6.9,3.1,6.9,6.9v1c0,1.7-1.4,3.1-3.1,3.1h-7.5
									c-1.7,0-3.1-1.4-3.1-3.1v-1C208.8,238.4,211.9,235.3,215.7,235.3z"/>
							</g>
							<path id="Rectangle_2586" class="st6" d="M215.7,214.9L215.7,214.9c0.5,0,0.9,0.4,0.9,0.9v7.4c0,0.5-0.4,0.9-0.9,0.9l0,0
								c-0.5,0-0.9-0.4-0.9-0.9v-7.4C214.8,215.3,215.2,214.9,215.7,214.9z"/>
						</g>
					</g>
				</g>
			</g>
		</g>
	</g>
</g>
</svg>
