<svg xmlns="http://www.w3.org/2000/svg" width="136.949" height="136.791" viewBox="0 0 136.949 136.791"><defs><style>.a{fill:#fafafa;}.b{fill:#ededf5;}.b,.c,.g{stroke:#717791;}.c{fill:#fafaff;}.d{fill:#8a8ac9;}.e{fill:#f6e991;}.f{fill:#f4f4f7;}.g,.i{fill:none;}.g{stroke-dasharray:8;}.h{fill:#f7f7ff;}.i{stroke:#707070;stroke-width:0.5px;stroke-dasharray:2;}</style></defs><g transform="translate(-436.792 -393.186)"><g transform="translate(24.154 -109.703)"><path class="a" d="M233.139,159.717c-41.794,12.057-80.378,4.447-96.056-7.572s-21.949-33.7-3.4-68.3c10.285-19.18,62.864-25.2,83.039-20.654,22.352,5.031,40.183,18.958,38.692,40.32C253.532,130.519,274.933,147.66,233.139,159.717Z" transform="translate(290.341 473.875)"/><path class="b" d="M-7810.235-17286l39.481-18.059,38.976,18.059-38.976,22.1Z" transform="translate(8252.48 17857.43)"/><path class="c" d="M-7731.678-17279.885v33.408l-38.824,20.846-39.292-20.846v-34.273l39.292,22.072Z" transform="translate(8252.381 17852.148)"/><path class="c" d="M-7746.066-17249.473l40.281-21.484-14.6-9.648-38.216,21.516Z" transform="translate(8240.781 17852.258)"/><g transform="translate(502.907 502.889)"><path class="d" d="M-7730.484-17378.621a1.637,1.637,0,0,0-2.42,1.912c.408,1.463,3.327.852,3.119,2.363-.2,1.424,2.153,3.6,3.945,2.041s.293-4.129-1.946-3.852S-7729-17377.881-7730.484-17378.621Z" transform="translate(7735.805 17382.26)"/><path class="e" d="M-7728.027-17379.1s1.848-6.354,4.2-3.352S-7728.027-17379.1-7728.027-17379.1Z" transform="translate(7734.683 17383.26)"/><path class="e" d="M5.005,4.564S2.764-2.359.535.848A3.035,3.035,0,0,0,.048,1.925C-.573,3.937,5.005,4.564,5.005,4.564Z" transform="translate(0 11.958) rotate(-90)"/></g><path class="f" d="M-7754.042-17320.027v-32.01l-39.014-22.221v33.3Z" transform="translate(8236.154 17945.91)"/><line class="g" y1="33.257" transform="translate(482.258 593.246)"/><path class="c" d="M-7828.231-17271.07l40.369,21.389,13.22-8.969-39.383-22.1Z" transform="translate(8256.558 17852.148)"/><path class="h" d="M-7791.618-17374.457l37.438-16.322v37.934Z" transform="translate(8235.846 17945.703)"/><path class="i" d="M-7769.937-17317.086s18.44-20.8,20.95-9.1c.385,5.467-5.251,5.459-6.852,4.412s-3.934-8.16,9.288-13.234,29.324-4.975,15.606-32.834" transform="translate(8246.412 17884.881)"/></g></g></svg>