<svg xmlns="http://www.w3.org/2000/svg" xmlns:xlink="http://www.w3.org/1999/xlink" width="126.631" height="126.631" viewBox="0 0 126.631 126.631"><defs><style>.a,.i{fill:none;}.b{fill:#f2f2f9;}.c{fill:#fefdff;}.d{fill:#e6e8eb;}.e{fill:#8e68d8;}.f{fill:#726691;}.g{clip-path:url(#e);}.h{fill:#d4cef3;}.i{stroke:#e6e8eb;stroke-linecap:round;stroke-miterlimit:10;stroke-width:2.216px;}.j{filter:url(#f);}.k{filter:url(#c);}.l{filter:url(#a);}</style><filter id="a" x="9.208" y="6.869" width="108.215" height="68.176" filterUnits="userSpaceOnUse"><feOffset dy="5.662" input="SourceAlpha"/><feGaussianBlur stdDeviation="2.022" result="b"/><feFlood flood-opacity="0.102"/><feComposite operator="in" in2="b"/><feComposite in="SourceGraphic"/></filter><filter id="c" x="11.207" y="69.545" width="104.217" height="33.335" filterUnits="userSpaceOnUse"><feOffset dy="3.797" input="SourceAlpha"/><feGaussianBlur stdDeviation="1.356" result="d"/><feFlood flood-opacity="0.102"/><feComposite operator="in" in2="d"/><feComposite in="SourceGraphic"/></filter><clipPath id="e"><circle class="a" cx="63.316" cy="63.316" r="63.316" transform="translate(196.33 183.325)"/></clipPath><filter id="f" x="11.207" y="100.816" width="104.217" height="33.335" filterUnits="userSpaceOnUse"><feOffset dy="3.797" input="SourceAlpha"/><feGaussianBlur stdDeviation="1.356" result="g"/><feFlood flood-opacity="0.102"/><feComposite operator="in" in2="g"/><feComposite in="SourceGraphic"/></filter></defs><g transform="translate(-425.287 -305)"><circle class="b" cx="63.316" cy="63.316" r="63.316" transform="translate(425.287 305)"/><g class="l" transform="matrix(1, 0, 0, 1, 425.29, 305)"><rect class="c" width="56.042" height="96.081" rx="7.128" transform="translate(111.36 7.27) rotate(90)"/></g><rect class="d" width="60.875" height="4.309" rx="1.178" transform="translate(466.069 322.718)"/><rect class="d" width="28.836" height="4.309" rx="0.94" transform="translate(466.069 341.712)"/><rect class="d" width="28.836" height="4.309" rx="0.94" transform="translate(466.069 353.209)"/><rect class="e" width="21.948" height="4.309" rx="1.111" transform="translate(504.996 353.209)"/><rect class="e" width="16.95" height="4.309" rx="1.158" transform="translate(509.994 341.712)"/><g transform="translate(228.957 121.675)"><path class="e" d="M226,199.4a2.733,2.733,0,0,0-.228-.287l1.291.007a.7.7,0,0,0,.674-.506l0-.008a.7.7,0,0,0-.67-.887h-5.93a.7.7,0,0,0-.672.512l-.03.107a.7.7,0,0,0,.672.881h1.23a2.428,2.428,0,0,1,1.766.559,1.8,1.8,0,0,1,.433.716h-3.421a.7.7,0,0,0-.67.507h0a.7.7,0,0,0,.67.887h3.478a1.76,1.76,0,0,1-.2.477,1.716,1.716,0,0,1-.79.674,3.119,3.119,0,0,1-1.27.231l-.868.06a.964.964,0,0,0-.751.449h0a.966.966,0,0,0,.072,1.13l3.351,4.068a.815.815,0,0,0,.628.3h0a.814.814,0,0,0,.64-1.317l-2.6-3.309a4.737,4.737,0,0,0,2.1-.547,2.872,2.872,0,0,0,1.168-1.214,3.519,3.519,0,0,0,.3-1h.689a.7.7,0,0,0,.671-.507h0a.7.7,0,0,0-.671-.887h-.7A3.432,3.432,0,0,0,226,199.4Z"/></g><g transform="translate(228.957 121.675)"><g class="k" transform="matrix(1, 0, 0, 1, 196.33, 183.33)"><rect class="f" width="25.199" height="96.081" rx="4.78" transform="translate(111.36 69.82) rotate(90)"/></g><rect class="d" width="60.875" height="4.309" rx="1.178" transform="translate(237.113 263.586)"/><path class="d" d="M226,261.939a2.721,2.721,0,0,0-.228-.286l1.291.007a.7.7,0,0,0,.674-.506l0-.008a.7.7,0,0,0-.67-.888h-5.93a.7.7,0,0,0-.672.513l-.03.107a.7.7,0,0,0,.672.881h1.23a2.424,2.424,0,0,1,1.766.559,1.792,1.792,0,0,1,.433.716h-3.421a.7.7,0,0,0-.67.507h0a.7.7,0,0,0,.67.887h3.478a1.766,1.766,0,0,1-.2.476,1.718,1.718,0,0,1-.79.675,3.12,3.12,0,0,1-1.27.231l-.868.06a.964.964,0,0,0-.751.449h0a.966.966,0,0,0,.072,1.13l3.351,4.067a.812.812,0,0,0,.628.3h0a.814.814,0,0,0,.64-1.317l-2.6-3.31a4.724,4.724,0,0,0,2.1-.547,2.87,2.87,0,0,0,1.168-1.213,3.538,3.538,0,0,0,.3-1h.689a.7.7,0,0,0,.671-.507h0a.7.7,0,0,0-.671-.887h-.7A3.437,3.437,0,0,0,226,261.939Z"/></g><g transform="translate(228.957 121.675)"><g class="g"><g class="j" transform="matrix(1, 0, 0, 1, 196.33, 183.33)"><rect class="c" width="25.199" height="96.081" rx="4.78" transform="translate(111.36 101.09) rotate(90)"/></g><rect class="h" width="60.875" height="4.309" rx="1.178" transform="translate(237.113 294.857)"/><path class="h" d="M226,293.211a2.733,2.733,0,0,0-.228-.287l1.291.007a.7.7,0,0,0,.674-.506l0-.008a.7.7,0,0,0-.67-.887h-5.93a.7.7,0,0,0-.672.512l-.03.107a.7.7,0,0,0,.672.881h1.23a2.424,2.424,0,0,1,1.766.559,1.8,1.8,0,0,1,.433.716h-3.421a.7.7,0,0,0-.67.507h0a.7.7,0,0,0,.67.887h3.478a1.76,1.76,0,0,1-.2.477,1.716,1.716,0,0,1-.79.674,3.12,3.12,0,0,1-1.27.231l-.868.06a.964.964,0,0,0-.751.449h0a.966.966,0,0,0,.072,1.13l3.351,4.068a.815.815,0,0,0,.628.3h0a.814.814,0,0,0,.64-1.317l-2.6-3.309a4.737,4.737,0,0,0,2.1-.547,2.877,2.877,0,0,0,1.168-1.214,3.519,3.519,0,0,0,.3-1h.689a.7.7,0,0,0,.671-.507h0a.7.7,0,0,0-.671-.887h-.7A3.432,3.432,0,0,0,226,293.211Z"/></g></g><rect class="e" width="14.632" height="7.493" rx="1.234" transform="translate(515.97 340.12)"/><g transform="translate(228.957 121.675)"><rect class="i" width="25.477" height="25.477" rx="12.738" transform="translate(287.707 208.6)"/><line class="i" x2="9.405" y2="8.976" transform="translate(308.606 231.115)"/></g></g></svg>